<?xml version="1.0" encoding="utf-8"?>
<!-- Generator: Adobe Illustrator 16.0.0, SVG Export Plug-In . SVG Version: 6.00 Build 0)  -->
<!DOCTYPE svg PUBLIC "-//W3C//DTD SVG 1.1//EN" "http://www.w3.org/Graphics/SVG/1.1/DTD/svg11.dtd">
<svg version="1.1" id="Layer_1" xmlns="http://www.w3.org/2000/svg" xmlns:xlink="http://www.w3.org/1999/xlink" x="0px" y="0px"
	 width="200px" height="228.333px" viewBox="0 0 200 228.333" enable-background="new 0 0 200 228.333" xml:space="preserve">
<g>
	<g>
		<path opacity="0.23" fill="#1D1D1B" d="M140.563,211.589h-1.974c-0.021-0.785-0.153-0.85-0.153-0.85l-6.308-0.508
			c-0.163-0.619-0.4-0.68-0.4-0.68l-23.493-1.098v-0.404h-1.687h-0.896H73.955H73.16h-1.615c-0.565,0-1.022,0.455-1.022,1.021v0.395
			h-3.244c-0.593,0-1.073,0.48-1.073,1.074v2.666c0,0.592,0.48,1.072,1.073,1.072h3.244v0.395c0,0.566,0.457,1.023,1.022,1.023
			h1.615h0.795h31.698h0.896h1.687v-0.404l23.493-1.098c0,0,0.188-0.146,0.346-0.676l6.362-0.514c0,0,0.117-0.152,0.148-0.846h1.979
			c0.158,0,0.287-0.129,0.287-0.287C140.851,211.716,140.722,211.589,140.563,211.589z"/>
		<g>
			<g>
				<path opacity="0.23" fill="#1D1D1B" d="M63.888,191.298c0,0,86.926,12.082,100.117,11.98
					c7.743-25.629,11.818-98.37,25.563-128.487c-1.742-0.276-11.276-1.663-11.276-1.663L63.888,191.298z"/>
				<path fill="#FAFBFB" d="M161.587,200.546c-29.255,2.768-97.699-9.248-97.699-9.248l21.12-133.103l101.475,16.101
					C186.482,74.296,162.734,193.316,161.587,200.546z"/>
				<g>
					<g>
						<g>
							<path fill="#D33260" d="M102.185,101.448l-3.476-4.574l1.786-1.356l2.12,2.789l10.16-7.653l1.356,1.786L102.185,101.448z"/>
						</g>
					</g>
					<path fill="#595A5A" d="M105.736,106.239l-10.028-1.592c-1.327-0.211-2.236-1.463-2.026-2.79l1.608-10.131
						c0.21-1.328,1.462-2.237,2.79-2.026l10.029,1.591l-0.202,1.277l-10.03-1.591c-0.624-0.099-1.211,0.328-1.311,0.952
						l-1.607,10.132c-0.099,0.624,0.328,1.211,0.951,1.31l10.03,1.592c0.623,0.099,1.211-0.329,1.309-0.951l0.636-3.995l1.277,0.203
						l-0.635,3.994C108.316,105.54,107.065,106.449,105.736,106.239z"/>
					
						<rect x="115.4" y="100.065" transform="matrix(0.9876 0.1567 -0.1567 0.9876 17.5724 -20.6485)" fill="#BEBFBF" width="48.673" height="2.105"/>
					
						<rect x="114.43" y="106.171" transform="matrix(0.9876 0.1567 -0.1567 0.9876 18.517 -20.4208)" fill="#BEBFBF" width="48.674" height="2.105"/>
				</g>
				<g>
					<g>
						<g>
							<path fill="#D33260" d="M98.191,126.616l-3.476-4.574l1.785-1.357l2.12,2.789l10.161-7.653l1.356,1.785L98.191,126.616z"/>
						</g>
					</g>
					<path fill="#595A5A" d="M101.745,131.405l-10.03-1.59c-1.328-0.211-2.237-1.463-2.026-2.791l1.607-10.131
						c0.211-1.327,1.462-2.236,2.79-2.025l10.03,1.592l-0.203,1.276l-10.03-1.591c-0.624-0.099-1.211,0.328-1.31,0.952
						l-1.607,10.131c-0.099,0.623,0.328,1.211,0.951,1.311l10.03,1.592c0.623,0.098,1.211-0.328,1.31-0.951l0.635-3.994l1.275,0.203
						l-0.633,3.994C104.322,130.708,103.072,131.618,101.745,131.405z"/>
					
						<rect x="111.546" y="123.462" transform="matrix(0.9876 0.1567 -0.1567 0.9876 21.0489 -17.9835)" fill="#BEBFBF" width="26.083" height="2.105"/>
					
						<rect x="110.437" y="131.338" transform="matrix(0.9876 0.1567 -0.1567 0.9876 22.413 -19.4853)" fill="#BEBFBF" width="48.674" height="2.104"/>
				</g>
				<g>
					<g>
						<g>
							<path fill="#D33260" d="M94.198,151.783l-3.477-4.574l1.785-1.355l2.12,2.787l10.161-7.654l1.356,1.787L94.198,151.783z"/>
						</g>
					</g>
					<path fill="#595A5A" d="M97.751,156.574l-10.029-1.592c-1.328-0.211-2.237-1.463-2.026-2.789l1.607-10.131
						c0.21-1.33,1.462-2.238,2.79-2.027l10.03,1.59l-0.203,1.279l-10.029-1.592c-0.624-0.1-1.212,0.328-1.311,0.951l-1.607,10.131
						c-0.099,0.623,0.328,1.213,0.952,1.311l10.029,1.592c0.623,0.1,1.211-0.328,1.31-0.951l0.635-3.994l1.276,0.203l-0.634,3.992
						C100.33,155.876,99.079,156.785,97.751,156.574z"/>
					
						<rect x="107.475" y="149.615" transform="matrix(0.9876 0.1567 -0.1567 0.9876 25.1751 -18.0087)" fill="#BEBFBF" width="38.665" height="2.104"/>
					
						<rect x="106.444" y="156.506" transform="matrix(0.9876 0.1567 -0.1567 0.9876 26.3113 -18.5506)" fill="#BEBFBF" width="48.674" height="2.104"/>
				</g>
				<g>
					<g>
						<g>
							<path fill="#D33260" d="M90.205,176.949l-3.477-4.572l1.785-1.355l2.12,2.785l10.162-7.652l1.356,1.787L90.205,176.949z"/>
						</g>
					</g>
					<path fill="#595A5A" d="M93.758,181.74l-10.029-1.592c-1.328-0.209-2.236-1.461-2.025-2.789l1.607-10.133
						c0.211-1.326,1.462-2.234,2.79-2.025l10.029,1.594l-0.202,1.277l-10.03-1.592c-0.624-0.1-1.211,0.328-1.311,0.949
						l-1.607,10.133c-0.099,0.623,0.328,1.211,0.952,1.311l10.029,1.592c0.624,0.098,1.211-0.33,1.311-0.953l0.633-3.992
						l1.277,0.201l-0.634,3.994C96.337,181.042,95.085,181.951,93.758,181.74z"/>
					
						<rect x="103.617" y="173.072" transform="matrix(0.9876 0.1568 -0.1568 0.9876 28.6844 -15.412)" fill="#BEBFBF" width="16.843" height="2.104"/>
					
						<rect x="102.564" y="180.238" transform="matrix(0.9876 0.1567 -0.1567 0.9876 29.8681 -16.2121)" fill="#BEBFBF" width="30.345" height="2.104"/>
				</g>
				
					<rect x="98.058" y="76.676" transform="matrix(0.9885 0.1514 -0.1514 0.9885 14.1941 -19.5527)" fill="none" stroke="#BEBFBF" stroke-width="2" stroke-miterlimit="10" width="74.863" height="13.507"/>
			</g>
			<g>
				<path opacity="0.23" fill="#1D1D1B" d="M33.551,204.322l5.354,0.23c0,0,67.428-11.844,91.74-19.303
					c-7.67-29.439-24.525-98.437-21.496-131.403c-1.735,0.315-6.631,1.158-6.631,1.158L33.551,204.322z"/>
				<path fill="#FAFBFB" d="M128.822,180.791c-26.699,12.273-95.271,23.531-95.271,23.531L9.536,71.71l101.1-18.309
					C110.636,53.401,127.52,173.587,128.822,180.791z"/>
				
					<rect x="23.723" y="72.498" transform="matrix(0.9846 -0.175 0.175 0.9846 -12.9221 11.9216)" fill="none" stroke="#BEBFBF" stroke-width="2" stroke-miterlimit="10" width="74.864" height="13.507"/>
				<g>
					<g>
						<g>
							<path fill="#D33260" d="M40.031,106.865l-4.792-3.169l1.238-1.87l2.921,1.932l7.064-10.579l1.871,1.237L40.031,106.865z"/>
						</g>
					</g>
					<path fill="#595A5A" d="M44.967,110.214l-9.992,1.81c-1.323,0.24-2.595-0.642-2.833-1.964l-1.829-10.094
						c-0.239-1.322,0.641-2.594,1.964-2.834l9.993-1.809l0.229,1.272l-9.992,1.81c-0.621,0.113-1.036,0.71-0.923,1.331l1.828,10.094
						c0.113,0.621,0.709,1.035,1.331,0.923l9.992-1.81c0.621-0.113,1.035-0.71,0.923-1.331l-0.721-3.979l1.272-0.23l0.721,3.979
						C47.171,108.704,46.29,109.975,44.967,110.214z"/>
					
						<rect x="51.031" y="93.102" transform="matrix(0.984 -0.1782 0.1782 0.984 -15.5716 14.937)" fill="#BEBFBF" width="48.673" height="2.104"/>
					
						<rect x="52.132" y="99.185" transform="matrix(0.984 -0.1782 0.1782 0.984 -16.6388 15.2316)" fill="#BEBFBF" width="48.673" height="2.105"/>
				</g>
				<g>
					<g>
						<g>
							<path fill="#D33260" d="M44.572,131.938l-4.791-3.168l1.237-1.869l2.921,1.932l7.064-10.579l1.87,1.237L44.572,131.938z"/>
						</g>
					</g>
					<path fill="#595A5A" d="M49.508,135.288l-9.992,1.81c-1.323,0.24-2.594-0.641-2.833-1.964l-1.828-10.094
						c-0.24-1.323,0.642-2.594,1.964-2.834l9.992-1.809l0.23,1.272l-9.993,1.81c-0.621,0.112-1.035,0.71-0.923,1.331l1.828,10.094
						c0.113,0.622,0.71,1.034,1.331,0.923l9.993-1.81c0.622-0.113,1.036-0.709,0.922-1.33l-0.72-3.98l1.272-0.23l0.721,3.98
						C51.711,133.778,50.831,135.049,49.508,135.288z"/>
					
						<rect x="55.752" y="120.188" transform="matrix(0.984 -0.1782 0.1782 0.984 -20.5046 14.2003)" fill="#BEBFBF" width="26.085" height="2.105"/>
					
						<rect x="56.673" y="124.258" transform="matrix(0.984 -0.1782 0.1782 0.984 -21.0346 16.4423)" fill="#BEBFBF" width="48.673" height="2.106"/>
				</g>
				<g>
					<g>
						<g>
							<path fill="#D33260" d="M49.113,157.015l-4.792-3.172l1.237-1.869l2.922,1.932l7.064-10.578l1.87,1.238L49.113,157.015z"/>
						</g>
					</g>
					<path fill="#595A5A" d="M54.048,160.363l-9.992,1.811c-1.323,0.24-2.593-0.643-2.833-1.965l-1.828-10.096
						c-0.24-1.322,0.642-2.594,1.964-2.832l9.993-1.809l0.23,1.27l-9.992,1.811c-0.622,0.113-1.036,0.711-0.923,1.33l1.828,10.096
						c0.113,0.621,0.71,1.035,1.332,0.924l9.993-1.811c0.621-0.113,1.035-0.711,0.922-1.33l-0.72-3.98l1.272-0.23l0.721,3.979
						C56.252,158.851,55.371,160.123,54.048,160.363z"/>
					
						<rect x="60.192" y="144.141" transform="matrix(0.984 -0.1782 0.1782 0.984 -24.6025 16.4968)" fill="#BEBFBF" width="38.665" height="2.106"/>
					
						<rect x="61.214" y="149.332" transform="matrix(0.984 -0.1783 0.1783 0.984 -25.4363 17.6578)" fill="#BEBFBF" width="48.672" height="2.106"/>
				</g>
				<g>
					<g>
						<g>
							<path fill="#D33260" d="M53.653,182.087l-4.791-3.17l1.236-1.869l2.922,1.934l7.063-10.58l1.871,1.236L53.653,182.087z"/>
						</g>
					</g>
					<path fill="#595A5A" d="M58.59,185.437l-9.993,1.811c-1.322,0.238-2.594-0.643-2.833-1.967l-1.828-10.094
						c-0.239-1.322,0.642-2.594,1.964-2.832l9.993-1.811l0.23,1.273l-9.992,1.809c-0.622,0.111-1.036,0.711-0.923,1.332
						l1.828,10.094c0.112,0.619,0.709,1.035,1.331,0.922l9.992-1.811c0.621-0.111,1.035-0.709,0.923-1.33l-0.721-3.979l1.272-0.23
						l0.72,3.979C60.793,183.927,59.912,185.197,58.59,185.437z"/>
					
						<rect x="64.907" y="171.159" transform="matrix(0.984 -0.1782 0.1782 0.984 -29.5171 15.8254)" fill="#BEBFBF" width="16.844" height="2.104"/>
					
						<rect x="65.902" y="176.041" transform="matrix(0.984 -0.1782 0.1782 0.984 -30.2544 17.2777)" fill="#BEBFBF" width="30.344" height="2.104"/>
				</g>
			</g>
			<g>
				<path opacity="0.23" fill="#1D1D1B" d="M50.545,192.974c0,0,94.001,4.201,107.013,2.033
					c-2.302-30.336-7.864-100.403-2.092-136.066c-2.198-0.275-10.449-0.604-10.449-0.604L50.545,192.974z"/>
				<path fill="#FFFFFF" d="M148.485,186.794c-28.46,7.32-97.94,6.18-97.94,6.18V58.205H153.29
					C153.29,58.205,148.485,179.476,148.485,186.794z"/>
				
					<text transform="matrix(1 0 0 1 88.2559 56.1055)" display="none" fill="#BEBFBF" font-family="'Raleway-Black'" font-size="14.0016">REGISTRATION</text>
				<g>
					<g>
						<g>
							<path fill="#D33260" d="M74.288,98.231l-4.149-3.972l1.55-1.62l2.53,2.421l8.836-9.15l1.62,1.551L74.288,98.231z"/>
						</g>
					</g>
					<path fill="#595A5A" d="M78.548,102.407H68.393c-1.345,0-2.438-1.094-2.438-2.438V89.71c0-1.344,1.093-2.438,2.438-2.438
						h10.155v1.292H68.393c-0.631,0-1.145,0.514-1.145,1.146v10.258c0,0.631,0.513,1.146,1.145,1.146h10.155
						c0.631,0,1.145-0.514,1.145-1.146v-4.043h1.293v4.043C80.986,101.313,79.892,102.407,78.548,102.407z"/>
					<rect x="86.987" y="90.968" fill="#BEBFBF" width="48.672" height="2.105"/>
					<rect x="86.987" y="97.15" fill="#BEBFBF" width="48.672" height="2.105"/>
				</g>
				<g>
					<g>
						<g>
							<path fill="#D33260" d="M74.288,123.713l-4.149-3.972l1.55-1.62l2.53,2.423l8.836-9.151l1.62,1.551L74.288,123.713z"/>
						</g>
					</g>
					<path fill="#595A5A" d="M78.548,127.889H68.393c-1.345,0-2.438-1.094-2.438-2.439v-10.258c0-1.344,1.093-2.438,2.438-2.438
						h10.155v1.293H68.393c-0.631,0-1.145,0.513-1.145,1.145v10.258c0,0.632,0.513,1.146,1.145,1.146h10.155
						c0.631,0,1.145-0.515,1.145-1.146v-4.043h1.293v4.043C80.986,126.795,79.892,127.889,78.548,127.889z"/>
					<rect x="86.987" y="116.45" fill="#BEBFBF" width="26.084" height="2.104"/>
					<rect x="86.987" y="122.632" fill="#BEBFBF" width="48.672" height="2.104"/>
				</g>
				<g>
					<g>
						<g>
							<path fill="#D33260" d="M74.288,149.197l-4.149-3.975l1.55-1.619l2.53,2.424l8.836-9.152l1.62,1.549L74.288,149.197z"/>
						</g>
					</g>
					<path fill="#595A5A" d="M78.548,153.371H68.393c-1.345,0-2.438-1.094-2.438-2.438v-10.26c0-1.344,1.093-2.438,2.438-2.438
						h10.155v1.295H68.393c-0.631,0-1.145,0.512-1.145,1.143v10.26c0,0.631,0.513,1.145,1.145,1.145h10.155
						c0.631,0,1.145-0.514,1.145-1.145v-4.043h1.293v4.043C80.986,152.277,79.892,153.371,78.548,153.371z"/>
					<rect x="86.987" y="141.931" fill="#BEBFBF" width="38.666" height="2.105"/>
					<rect x="86.987" y="148.113" fill="#BEBFBF" width="48.672" height="2.105"/>
				</g>
				<g>
					<g>
						<g>
							<path fill="#D33260" d="M74.288,174.677l-4.149-3.973l1.55-1.619l2.53,2.422l8.836-9.15l1.62,1.553L74.288,174.677z"/>
						</g>
					</g>
					<path fill="#595A5A" d="M78.548,178.853H68.393c-1.345,0-2.438-1.094-2.438-2.439v-10.258c0-1.344,1.093-2.438,2.438-2.438
						h10.155v1.293H68.393c-0.631,0-1.145,0.514-1.145,1.145v10.258c0,0.633,0.513,1.146,1.145,1.146h10.155
						c0.631,0,1.145-0.514,1.145-1.146v-4.043h1.293v4.043C80.986,177.759,79.892,178.853,78.548,178.853z"/>
					<rect x="86.987" y="167.412" fill="#BEBFBF" width="16.844" height="2.107"/>
					<rect x="86.987" y="173.597" fill="#BEBFBF" width="30.345" height="2.104"/>
				</g>
			</g>
		</g>
		<g>
			<g>
				<path fill="#3C3C3B" d="M139.168,210.191L139.168,210.191c0,0.16-0.128,0.285-0.285,0.285h-2.045
					c-0.156,0-0.284-0.125-0.284-0.285l0,0c0-0.158,0.128-0.285,0.284-0.285h2.045C139.04,209.906,139.168,210.033,139.168,210.191z
					"/>
				<path fill="#D33260" d="M136.755,209.058c0,0,0.157,0.064,0.157,1.064c0,0.998-0.157,1.203-0.157,1.203l-6.815,0.549v-3.367
					L136.755,209.058z"/>
				<path fill="#3C3C3B" d="M64.524,211.523v-2.664c0-0.592,0.481-1.074,1.074-1.074h3.675v4.814h-3.675
					C65.005,212.599,64.524,212.117,64.524,211.523z"/>
				<rect x="71.478" y="206.367" fill="#3C3C3B" width="33.388" height="7.648"/>
				<path fill="#3C3C3B" d="M130.047,207.871c0,0,0.553,0.131,0.553,2.178s-0.553,2.465-0.553,2.465l-24.083,1.125v-6.895
					L130.047,207.871z"/>
				<path fill="#D33260" d="M72.272,206.367v7.648h-2.409c-0.565,0-1.022-0.457-1.022-1.021v-5.604c0-0.564,0.457-1.023,1.022-1.023
					H72.272z"/>
				<polygon fill="#D33260" points="126.502,212.679 129.283,212.548 129.283,207.835 126.502,207.705 				"/>
				<path fill="#D33260" d="M97.257,210.191L97.257,210.191c0-0.754-0.611-1.367-1.366-1.367H75.108v2.734h20.782
					C96.646,211.558,97.257,210.947,97.257,210.191z"/>
				<rect x="103.97" y="206.367" fill="#D33260" width="2.584" height="7.648"/>
			</g>
			<path opacity="0.51" fill="#5D5E5E" d="M64.524,210.175v1.348c0,0.594,0.481,1.076,1.074,1.076h3.244v0.395
				c0,0.564,0.457,1.021,1.022,1.021h1.615h0.794h31.698h0.896h1.688v-0.406l23.493-1.096c0,0,0.189-0.146,0.346-0.676l6.362-0.512
				c0,0,0.118-0.156,0.149-0.848h1.979c0.157,0,0.285-0.127,0.285-0.287c0-0.006-0.004-0.01-0.004-0.016H64.524z"/>
		</g>
		
			<rect x="65.451" y="68.201" fill="none" stroke="#BEBFBF" stroke-width="2" stroke-miterlimit="10" width="74.863" height="13.507"/>
	</g>
</g>
<g>
	<path fill="#D33260" d="M32.804,16.259v3.588H27.24V34.46h-3.718V19.847h-5.564v-3.588H32.804z"/>
	<path fill="#D33260" d="M38.992,20.965c1.976,0,3.64,0.676,5.018,2.028c1.353,1.378,2.028,3.042,2.028,4.992
		s-0.676,3.614-2.028,4.966c-1.378,1.378-3.042,2.054-5.018,2.054S35.352,34.33,34,32.952c-1.378-1.352-2.054-3.016-2.054-4.966
		s0.676-3.614,2.054-4.992C35.352,21.642,37.016,20.965,38.992,20.965z M36.521,25.438c-0.676,0.702-1.014,1.534-1.014,2.522
		c0,0.988,0.338,1.846,1.014,2.548c0.676,0.702,1.508,1.066,2.47,1.066c0.962,0,1.768-0.364,2.444-1.066
		c0.676-0.702,1.014-1.56,1.014-2.548c0-0.962-0.338-1.82-1.014-2.522c-0.676-0.702-1.482-1.04-2.444-1.04
		C38.004,24.397,37.172,24.736,36.521,25.438z"/>
	<path fill="#D33260" d="M48.976,16.259h6.552c2.652,0,4.862,0.858,6.63,2.574c1.768,1.742,2.652,3.926,2.652,6.552
		c0,2.626-0.884,4.81-2.626,6.5c-1.768,1.716-3.978,2.574-6.656,2.574h-6.552V16.259z M52.693,30.898h2.834
		c1.586,0,2.912-0.52,3.978-1.586c1.066-1.04,1.586-2.366,1.586-3.952c0-1.586-0.52-2.912-1.56-3.979
		c-1.066-1.04-2.392-1.56-3.978-1.56h-2.86V30.898z"/>
	<path fill="#D33260" d="M73.779,20.965c1.976,0,3.64,0.676,5.019,2.028c1.352,1.378,2.028,3.042,2.028,4.992
		s-0.676,3.614-2.028,4.966c-1.378,1.378-3.042,2.054-5.019,2.054s-3.64-0.676-4.992-2.054c-1.378-1.352-2.054-3.016-2.054-4.966
		s0.676-3.614,2.054-4.992C70.139,21.642,71.803,20.965,73.779,20.965z M71.31,25.438c-0.676,0.702-1.014,1.534-1.014,2.522
		c0,0.988,0.338,1.846,1.014,2.548c0.676,0.702,1.508,1.066,2.47,1.066s1.768-0.364,2.444-1.066c0.676-0.702,1.014-1.56,1.014-2.548
		c0-0.962-0.338-1.82-1.014-2.522c-0.676-0.702-1.482-1.04-2.444-1.04C72.792,24.397,71.959,24.736,71.31,25.438z"/>
	<path fill="#D33260" d="M90.288,16h3.588v18.46h-3.588V16z"/>
	<path fill="#D33260" d="M96.814,17.221c0-1.222,0.988-2.184,2.236-2.184c1.222,0,2.236,1.014,2.236,2.184
		c0,1.222-1.014,2.21-2.236,2.21C97.802,19.431,96.814,18.443,96.814,17.221z M97.23,21.459h3.614v13H97.23V21.459z"/>
	<path fill="#D33260" d="M111.504,27.206c1.353,0.624,2.419,1.846,2.419,3.588c0,1.248-0.521,2.236-1.561,2.99
		c-1.04,0.78-2.288,1.145-3.771,1.145c-1.638,0-3.354-0.364-5.147-1.066l0.546-3.25c1.638,0.832,3.172,1.248,4.602,1.248
		c1.04,0,1.769-0.416,1.769-1.118c0-0.962-2.471-1.43-4.446-2.288c-1.353-0.598-2.418-1.768-2.418-3.406
		c0-1.196,0.494-2.184,1.481-2.938c0.988-0.754,2.236-1.118,3.719-1.118c1.794,0,3.38,0.338,4.732,1.014l-0.572,3.198
		c-1.378-0.754-2.782-1.144-4.16-1.144c-1.092,0-1.639,0.312-1.639,0.936C107.058,25.958,109.528,26.322,111.504,27.206z"/>
	<path fill="#D33260" d="M125.311,34.044c-0.858,0.494-1.872,0.728-3.042,0.728c-2.99,0-4.706-1.716-4.706-4.836v-5.278h-2.236
		v-3.198h2.236v-3.744h3.588v3.744h3.9v3.198h-3.9v5.226c0,0.858,0.572,1.43,1.431,1.43c0.754,0,1.455-0.182,2.132-0.572
		L125.311,34.044z"/>
	<path fill="#D33260" d="M145.929,34.46l-1.17-3.38h-7.307l-1.17,3.38h-3.9l6.604-18.305h4.238l6.604,18.305H145.929z
		 M138.622,27.751h4.967l-1.977-5.642l-0.494-2.002l-0.52,2.002L138.622,27.751z"/>
	<path fill="#D33260" d="M163.79,23.098c1.145,1.352,1.716,2.964,1.716,4.862c0,1.872-0.571,3.484-1.716,4.862
		c-1.17,1.378-2.626,2.054-4.395,2.054c-1.638,0-3.275-0.806-4.134-1.976l0.13,1.04v5.98h-3.614V21.459h3.458v1.586
		c0.858-1.222,2.471-1.976,4.16-1.976C161.164,21.069,162.62,21.746,163.79,23.098z M160.982,30.43
		c0.624-0.702,0.936-1.508,0.936-2.47c0-0.962-0.312-1.768-0.936-2.47c-0.65-0.676-1.431-1.014-2.341-1.014
		c-1.378,0-2.496,0.546-3.302,1.664v3.64c0.832,1.118,1.924,1.69,3.302,1.69C159.552,31.47,160.332,31.132,160.982,30.43z"/>
	<path fill="#D33260" d="M180.04,23.098c1.145,1.352,1.716,2.964,1.716,4.862c0,1.872-0.571,3.484-1.716,4.862
		c-1.17,1.378-2.626,2.054-4.395,2.054c-1.638,0-3.275-0.806-4.134-1.976l0.13,1.04v5.98h-3.614V21.459h3.458v1.586
		c0.858-1.222,2.471-1.976,4.16-1.976C177.414,21.069,178.87,21.746,180.04,23.098z M177.232,30.43
		c0.624-0.702,0.936-1.508,0.936-2.47c0-0.962-0.312-1.768-0.936-2.47c-0.65-0.676-1.431-1.014-2.341-1.014
		c-1.378,0-2.496,0.546-3.302,1.664v3.64c0.832,1.118,1.924,1.69,3.302,1.69C175.802,31.47,176.582,31.132,177.232,30.43z"/>
</g>
</svg>
