<?xml version="1.0" encoding="utf-8"?>
<!-- Generator: Adobe Illustrator 16.0.0, SVG Export Plug-In . SVG Version: 6.00 Build 0)  -->
<!DOCTYPE svg PUBLIC "-//W3C//DTD SVG 1.1//EN" "http://www.w3.org/Graphics/SVG/1.1/DTD/svg11.dtd">
<svg version="1.1" id="Layer_1" xmlns="http://www.w3.org/2000/svg" xmlns:xlink="http://www.w3.org/1999/xlink" x="0px" y="0px"
	 width="200px" height="268.166px" viewBox="0 -39.833 200 268.166" enable-background="new 0 -39.833 200 268.166"
	 xml:space="preserve">
<g>
	<g>
		<path opacity="0.23" fill="#1D1D1B" enable-background="new    " d="M140.563,211.588h-1.974c-0.021-0.784-0.153-0.85-0.153-0.85
			l-6.308-0.508c-0.163-0.619-0.399-0.68-0.399-0.68l-23.494-1.098v-0.404h-1.687h-0.896H73.955H73.16h-1.615
			c-0.565,0-1.022,0.455-1.022,1.021v0.396h-3.244c-0.593,0-1.073,0.479-1.073,1.074v2.666c0,0.592,0.48,1.071,1.073,1.071h3.244
			v0.396c0,0.565,0.457,1.022,1.022,1.022h1.615h0.795h31.697h0.896h1.688v-0.403l23.492-1.099c0,0,0.188-0.146,0.347-0.676
			l6.362-0.515c0,0,0.117-0.151,0.147-0.846h1.979c0.158,0,0.287-0.129,0.287-0.287
			C140.852,211.715,140.723,211.588,140.563,211.588z"/>
		<g>
			<g>
				<path opacity="0.23" fill="#1D1D1B" enable-background="new    " d="M63.888,191.297c0,0,86.926,12.082,100.117,11.98
					c7.743-25.629,11.818-98.37,25.563-128.487c-1.742-0.276-11.276-1.663-11.276-1.663L63.888,191.297z"/>
				<path fill="#FAFBFB" d="M161.587,200.545c-29.255,2.769-97.699-9.248-97.699-9.248l21.12-133.103l101.475,16.101
					C186.482,74.296,162.734,193.316,161.587,200.545z"/>
				<g>
					<g>
						<g>
							<path fill="#D33260" d="M102.186,101.448l-3.477-4.574l1.786-1.356l2.12,2.789l10.16-7.653l1.355,1.786L102.186,101.448z"/>
						</g>
					</g>
					<path fill="#595A5A" d="M105.736,106.239l-10.028-1.592c-1.327-0.211-2.236-1.463-2.026-2.79l1.608-10.131
						c0.21-1.328,1.462-2.237,2.79-2.026l10.029,1.591l-0.202,1.277l-10.03-1.591c-0.624-0.099-1.211,0.328-1.311,0.952
						l-1.607,10.132c-0.099,0.624,0.328,1.211,0.951,1.31l10.029,1.592c0.623,0.099,1.211-0.329,1.31-0.951l0.636-3.995l1.277,0.203
						l-0.635,3.994C108.316,105.54,107.064,106.449,105.736,106.239z"/>
					
						<rect x="115.396" y="100.059" transform="matrix(-0.9876 -0.1567 0.1567 -0.9876 261.8918 222.8711)" fill="#BEBFBF" width="48.671" height="2.105"/>
					
						<rect x="114.425" y="106.166" transform="matrix(-0.9876 -0.1567 0.1567 -0.9876 259.0056 234.8564)" fill="#BEBFBF" width="48.672" height="2.105"/>
				</g>
				<g>
					<g>
						<g>
							<path fill="#D33260" d="M98.191,126.616l-3.476-4.574l1.785-1.356l2.12,2.789l10.161-7.653l1.355,1.785L98.191,126.616z"/>
						</g>
					</g>
					<path fill="#595A5A" d="M101.745,131.405l-10.03-1.59c-1.328-0.211-2.237-1.463-2.026-2.791l1.607-10.131
						c0.211-1.327,1.462-2.236,2.79-2.025l10.03,1.592l-0.203,1.276l-10.03-1.591c-0.624-0.1-1.211,0.328-1.31,0.952l-1.607,10.131
						c-0.099,0.623,0.328,1.211,0.951,1.312l10.03,1.592c0.623,0.098,1.211-0.328,1.31-0.951l0.636-3.994l1.274,0.203l-0.633,3.994
						C104.322,130.708,103.072,131.618,101.745,131.405z"/>
					
						<rect x="111.539" y="123.457" transform="matrix(-0.9876 -0.1567 0.1567 -0.9876 228.106 267.0054)" fill="#BEBFBF" width="26.082" height="2.104"/>
					
						<rect x="110.435" y="131.33" transform="matrix(-0.9876 -0.1567 0.1567 -0.9876 247.1314 284.248)" fill="#BEBFBF" width="48.672" height="2.104"/>
				</g>
				<g>
					<g>
						<g>
							<path fill="#D33260" d="M94.198,151.784l-3.477-4.574l1.785-1.355l2.12,2.787l10.161-7.654l1.355,1.787L94.198,151.784z"/>
						</g>
					</g>
					<path fill="#595A5A" d="M97.751,156.575l-10.029-1.593c-1.328-0.211-2.237-1.463-2.026-2.789l1.607-10.131
						c0.21-1.33,1.462-2.237,2.79-2.026l10.03,1.59l-0.203,1.278l-10.029-1.592c-0.624-0.101-1.212,0.328-1.311,0.951l-1.607,10.131
						c-0.099,0.623,0.328,1.213,0.952,1.312l10.029,1.592c0.623,0.1,1.211-0.328,1.31-0.951l0.635-3.994l1.276,0.203l-0.634,3.992
						C100.33,155.875,99.079,156.786,97.751,156.575z"/>
					
						<rect x="107.469" y="149.609" transform="matrix(-0.9876 -0.1567 0.1567 -0.9876 228.4262 319.33)" fill="#BEBFBF" width="38.663" height="2.104"/>
					
						<rect x="106.446" y="156.495" transform="matrix(-0.9876 -0.1567 0.1567 -0.9876 235.2564 333.6423)" fill="#BEBFBF" width="48.672" height="2.103"/>
				</g>
				<g>
					<g>
						<g>
							<path fill="#D33260" d="M90.205,176.95l-3.477-4.572l1.785-1.355l2.12,2.785l10.162-7.652l1.355,1.787L90.205,176.95z"/>
						</g>
					</g>
					<path fill="#595A5A" d="M93.758,181.741l-10.029-1.593c-1.328-0.209-2.236-1.461-2.025-2.789l1.607-10.133
						c0.211-1.326,1.462-2.233,2.79-2.024l10.029,1.594l-0.202,1.277l-10.03-1.593c-0.624-0.101-1.211,0.328-1.311,0.949
						l-1.607,10.133c-0.099,0.623,0.328,1.211,0.952,1.312l10.029,1.592c0.624,0.098,1.211-0.33,1.311-0.953l0.633-3.992
						l1.277,0.201l-0.634,3.994C96.337,181.042,95.085,181.952,93.758,181.741z"/>
					
						<rect x="103.61" y="173.069" transform="matrix(-0.9876 -0.1568 0.1568 -0.9876 195.3788 363.652)" fill="#BEBFBF" width="16.843" height="2.104"/>
					
						<rect x="102.565" y="180.227" transform="matrix(-0.9876 -0.1567 0.1567 -0.9876 205.6124 378.7686)" fill="#BEBFBF" width="30.344" height="2.104"/>
				</g>
				
					<rect x="98.062" y="76.677" transform="matrix(-0.9885 -0.1514 0.1514 -0.9885 256.7951 186.4128)" fill="none" stroke="#BEBFBF" stroke-width="2" stroke-miterlimit="10" width="74.865" height="13.507"/>
			</g>
			<g>
				<path opacity="0.23" fill="#1D1D1B" enable-background="new    " d="M33.551,204.323l5.354,0.229
					c0,0,67.428-11.844,91.74-19.303c-7.67-29.438-24.524-98.437-21.496-131.402c-1.734,0.315-6.631,1.158-6.631,1.158
					L33.551,204.323z"/>
				<path fill="#FAFBFB" d="M128.822,180.792c-26.699,12.272-95.271,23.531-95.271,23.531L9.536,71.71l101.101-18.309
					C110.637,53.401,127.52,173.586,128.822,180.792z"/>
				
					<rect x="23.727" y="72.497" transform="matrix(-0.9846 0.175 -0.175 -0.9846 135.2448 146.5756)" fill="none" stroke="#BEBFBF" stroke-width="2" stroke-miterlimit="10" width="74.867" height="13.508"/>
				<g>
					<g>
						<g>
							<path fill="#D33260" d="M40.031,106.865l-4.792-3.169l1.238-1.87l2.921,1.932l7.064-10.579l1.871,1.237L40.031,106.865z"/>
						</g>
					</g>
					<path fill="#595A5A" d="M44.967,110.214l-9.992,1.81c-1.323,0.24-2.595-0.642-2.833-1.964l-1.829-10.094
						c-0.239-1.322,0.641-2.594,1.964-2.834l9.993-1.809l0.229,1.272l-9.992,1.81c-0.621,0.113-1.036,0.71-0.923,1.331l1.828,10.094
						c0.113,0.621,0.709,1.035,1.331,0.923l9.992-1.81c0.621-0.113,1.035-0.71,0.923-1.331l-0.721-3.979l1.272-0.23l0.721,3.979
						C47.171,108.704,46.29,109.975,44.967,110.214z"/>
					
						<rect x="51.032" y="93.102" transform="matrix(-0.984 0.1782 -0.1782 -0.984 166.3084 173.3708)" fill="#BEBFBF" width="48.673" height="2.104"/>
					
						<rect x="52.132" y="99.186" transform="matrix(-0.984 0.1782 -0.1782 -0.984 169.5757 185.2463)" fill="#BEBFBF" width="48.673" height="2.105"/>
				</g>
				<g>
					<g>
						<g>
							<path fill="#D33260" d="M44.572,131.938l-4.791-3.168l1.237-1.869l2.921,1.932l7.064-10.578l1.87,1.236L44.572,131.938z"/>
						</g>
					</g>
					<path fill="#595A5A" d="M49.508,135.288l-9.992,1.811c-1.323,0.24-2.594-0.641-2.833-1.965l-1.828-10.094
						c-0.24-1.322,0.642-2.594,1.964-2.834l9.992-1.809l0.23,1.271l-9.993,1.811c-0.621,0.111-1.035,0.71-0.923,1.331l1.828,10.094
						c0.113,0.622,0.71,1.034,1.331,0.923l9.993-1.81c0.622-0.113,1.036-0.709,0.922-1.33l-0.72-3.979l1.272-0.23l0.721,3.98
						C51.711,133.778,50.831,135.049,49.508,135.288z"/>
					
						<rect x="55.752" y="120.189" transform="matrix(-0.984 0.1782 -0.1782 -0.984 158.0929 228.2834)" fill="#BEBFBF" width="26.085" height="2.106"/>
					
						<rect x="56.673" y="124.26" transform="matrix(-0.984 0.1782 -0.1782 -0.984 183.0538 234.1838)" fill="#BEBFBF" width="48.673" height="2.106"/>
				</g>
				<g>
					<g>
						<g>
							<path fill="#D33260" d="M49.113,157.015l-4.792-3.173l1.237-1.868l2.922,1.933l7.064-10.578l1.87,1.237L49.113,157.015z"/>
						</g>
					</g>
					<path fill="#595A5A" d="M54.048,160.363l-9.992,1.812c-1.323,0.24-2.593-0.643-2.833-1.965l-1.828-10.096
						c-0.24-1.322,0.642-2.595,1.964-2.832l9.993-1.81l0.23,1.271l-9.992,1.811c-0.622,0.113-1.036,0.711-0.923,1.33l1.828,10.096
						c0.113,0.621,0.71,1.035,1.332,0.924l9.993-1.811c0.621-0.113,1.035-0.711,0.922-1.33l-0.72-3.98l1.272-0.23l0.721,3.98
						C56.252,158.851,55.371,160.124,54.048,160.363z"/>
					
						<rect x="60.191" y="144.144" transform="matrix(-0.984 0.1782 -0.1782 -0.984 183.6492 273.8973)" fill="#BEBFBF" width="38.665" height="2.106"/>
					
						<rect x="61.222" y="149.33" transform="matrix(-0.984 0.1783 -0.1783 -0.984 196.5583 283.1032)" fill="#BEBFBF" width="48.673" height="2.106"/>
				</g>
				<g>
					<g>
						<g>
							<path fill="#D33260" d="M53.653,182.086l-4.791-3.17l1.236-1.869l2.922,1.935l7.063-10.58l1.871,1.236L53.653,182.086z"/>
						</g>
					</g>
					<path fill="#595A5A" d="M58.59,185.437l-9.993,1.812c-1.322,0.237-2.594-0.644-2.833-1.967l-1.828-10.095
						c-0.239-1.321,0.642-2.595,1.964-2.832l9.993-1.812l0.23,1.273l-9.992,1.809c-0.622,0.111-1.036,0.711-0.923,1.332
						l1.828,10.094c0.112,0.619,0.709,1.035,1.331,0.923l9.992-1.812c0.621-0.111,1.035-0.709,0.923-1.33l-0.721-3.979l1.272-0.23
						l0.72,3.979C60.793,183.926,59.912,185.198,58.59,185.437z"/>
					
						<rect x="64.905" y="171.162" transform="matrix(-0.984 0.1782 -0.1782 -0.984 176.1718 328.6032)" fill="#BEBFBF" width="16.844" height="2.104"/>
					
						<rect x="65.909" y="176.038" transform="matrix(-0.984 0.1782 -0.1782 -0.984 192.4203 336.897)" fill="#BEBFBF" width="30.344" height="2.104"/>
				</g>
			</g>
			<g>
				<path opacity="0.23" fill="#1D1D1B" enable-background="new    " d="M50.545,192.974c0,0,94.001,4.2,107.014,2.032
					c-2.303-30.336-7.865-100.402-2.093-136.065c-2.198-0.275-10.448-0.604-10.448-0.604L50.545,192.974z"/>
				<path fill="#FFFFFF" d="M148.484,186.793c-28.459,7.32-97.939,6.181-97.939,6.181V58.205H153.29
					C153.29,58.205,148.484,179.476,148.484,186.793z"/>
				
					<text transform="matrix(1 0 0 1 88.2559 56.1055)" display="none" fill="#BEBFBF" enable-background="new    " font-family="'ArialMT'" font-size="14.0016">REGISTRATION</text>
				<g>
					<g>
						<g>
							<path fill="#D33260" d="M74.288,98.231l-4.149-3.972l1.55-1.62l2.53,2.421l8.836-9.15l1.62,1.551L74.288,98.231z"/>
						</g>
					</g>
					<path fill="#595A5A" d="M78.548,102.407H68.393c-1.345,0-2.438-1.094-2.438-2.438V89.71c0-1.344,1.093-2.438,2.438-2.438
						h10.155v1.292H68.393c-0.631,0-1.145,0.514-1.145,1.146v10.258c0,0.631,0.513,1.146,1.145,1.146h10.155
						c0.631,0,1.145-0.514,1.145-1.146v-4.043h1.293v4.043C80.986,101.313,79.892,102.407,78.548,102.407z"/>
					<rect x="86.987" y="90.968" fill="#BEBFBF" width="48.672" height="2.105"/>
					<rect x="86.987" y="97.15" fill="#BEBFBF" width="48.672" height="2.105"/>
				</g>
				<g>
					<g>
						<g>
							<path fill="#D33260" d="M74.288,123.713l-4.149-3.973l1.55-1.619l2.53,2.422l8.836-9.15l1.62,1.551L74.288,123.713z"/>
						</g>
					</g>
					<path fill="#595A5A" d="M78.548,127.889H68.393c-1.345,0-2.438-1.094-2.438-2.439v-10.258c0-1.344,1.093-2.438,2.438-2.438
						h10.155v1.293H68.393c-0.631,0-1.145,0.513-1.145,1.145v10.258c0,0.633,0.513,1.146,1.145,1.146h10.155
						c0.631,0,1.145-0.516,1.145-1.146v-4.043h1.293v4.043C80.986,126.795,79.892,127.889,78.548,127.889z"/>
					<rect x="86.987" y="116.45" fill="#BEBFBF" width="26.083" height="2.104"/>
					<rect x="86.987" y="122.631" fill="#BEBFBF" width="48.672" height="2.104"/>
				</g>
				<g>
					<g>
						<g>
							<path fill="#D33260" d="M74.288,149.198l-4.149-3.976l1.55-1.619l2.53,2.424l8.836-9.151l1.62,1.549L74.288,149.198z"/>
						</g>
					</g>
					<path fill="#595A5A" d="M78.548,153.372H68.393c-1.345,0-2.438-1.095-2.438-2.438v-10.261c0-1.344,1.093-2.438,2.438-2.438
						h10.155v1.295H68.393c-0.631,0-1.145,0.512-1.145,1.143v10.261c0,0.631,0.513,1.146,1.145,1.146h10.155
						c0.631,0,1.145-0.515,1.145-1.146v-4.043h1.293v4.043C80.986,152.277,79.892,153.372,78.548,153.372z"/>
					<rect x="86.987" y="141.931" fill="#BEBFBF" width="38.666" height="2.104"/>
					<rect x="86.987" y="148.113" fill="#BEBFBF" width="48.672" height="2.104"/>
				</g>
				<g>
					<g>
						<g>
							<path fill="#D33260" d="M74.288,174.676l-4.149-3.973l1.55-1.619l2.53,2.422l8.836-9.149l1.62,1.554L74.288,174.676z"/>
						</g>
					</g>
					<path fill="#595A5A" d="M78.548,178.853H68.393c-1.345,0-2.438-1.095-2.438-2.438v-10.258c0-1.345,1.093-2.439,2.438-2.439
						h10.155v1.293H68.393c-0.631,0-1.145,0.515-1.145,1.146v10.258c0,0.633,0.513,1.146,1.145,1.146h10.155
						c0.631,0,1.145-0.515,1.145-1.146v-4.043h1.293v4.043C80.986,177.758,79.892,178.853,78.548,178.853z"/>
					<rect x="86.987" y="167.413" fill="#BEBFBF" width="16.844" height="2.106"/>
					<rect x="86.987" y="173.597" fill="#BEBFBF" width="30.345" height="2.104"/>
				</g>
			</g>
		</g>
		<g>
			<g>
				<path fill="#3C3C3B" d="M139.168,210.191L139.168,210.191c0,0.16-0.128,0.285-0.285,0.285h-2.045
					c-0.156,0-0.283-0.125-0.283-0.285l0,0c0-0.157,0.127-0.284,0.283-0.284h2.045C139.04,209.907,139.168,210.034,139.168,210.191z
					"/>
				<path fill="#D33260" d="M136.755,209.058c0,0,0.157,0.063,0.157,1.063c0,0.998-0.157,1.203-0.157,1.203l-6.815,0.549v-3.367
					L136.755,209.058z"/>
				<path fill="#3C3C3B" d="M64.524,211.523v-2.664c0-0.592,0.481-1.073,1.074-1.073h3.675v4.813h-3.675
					C65.005,212.599,64.524,212.118,64.524,211.523z"/>
				<rect x="71.478" y="206.368" fill="#3C3C3B" width="33.388" height="7.647"/>
				<path fill="#3C3C3B" d="M130.047,207.872c0,0,0.553,0.131,0.553,2.178s-0.553,2.465-0.553,2.465l-24.083,1.125v-6.895
					L130.047,207.872z"/>
				<path fill="#D33260" d="M72.272,206.368v7.647h-2.409c-0.565,0-1.022-0.457-1.022-1.021v-5.604c0-0.563,0.457-1.022,1.022-1.022
					H72.272z"/>
				<polygon fill="#D33260" points="126.502,212.679 129.283,212.547 129.283,207.834 126.502,207.706 				"/>
				<path fill="#D33260" d="M97.257,210.191L97.257,210.191c0-0.754-0.611-1.366-1.366-1.366H75.108v2.733H95.89
					C96.646,211.558,97.257,210.948,97.257,210.191z"/>
				<rect x="103.971" y="206.368" fill="#D33260" width="2.584" height="7.647"/>
			</g>
			<path opacity="0.51" fill="#5D5E5E" enable-background="new    " d="M64.524,210.174v1.349c0,0.595,0.481,1.076,1.074,1.076
				h3.244v0.396c0,0.563,0.457,1.021,1.022,1.021h1.615h0.794h31.698h0.896h1.688v-0.406l23.493-1.096c0,0,0.188-0.146,0.347-0.677
				l6.361-0.512c0,0,0.118-0.156,0.148-0.848h1.979c0.157,0,0.285-0.127,0.285-0.287c0-0.006-0.004-0.01-0.004-0.016H64.524
				L64.524,210.174z"/>
		</g>
		
			<rect x="65.451" y="68.201" fill="none" stroke="#BEBFBF" stroke-width="2" stroke-miterlimit="10" width="74.863" height="13.507"/>
	</g>
</g>
<g display="none">
	<path display="inline" fill="#FFFFFF" d="M32.804,16.259v3.588H27.24V34.46h-3.718V19.847h-5.564v-3.588H32.804z"/>
	<path display="inline" fill="#FFFFFF" d="M38.992,20.965c1.976,0,3.64,0.676,5.018,2.028c1.353,1.378,2.028,3.042,2.028,4.992
		c0,1.95-0.676,3.614-2.028,4.966c-1.378,1.378-3.042,2.054-5.018,2.054c-1.976,0-3.64-0.675-4.992-2.053
		c-1.378-1.352-2.054-3.016-2.054-4.966c0-1.95,0.676-3.614,2.054-4.992C35.352,21.642,37.016,20.965,38.992,20.965z M36.521,25.438
		c-0.676,0.702-1.014,1.534-1.014,2.522c0,0.988,0.338,1.846,1.014,2.548c0.676,0.702,1.508,1.066,2.47,1.066
		c0.962,0,1.768-0.364,2.444-1.066c0.676-0.702,1.014-1.56,1.014-2.548c0-0.962-0.338-1.82-1.014-2.522
		c-0.676-0.702-1.482-1.04-2.444-1.04C38.004,24.397,37.172,24.736,36.521,25.438z"/>
	<path display="inline" fill="#FFFFFF" d="M48.976,16.259h6.552c2.652,0,4.862,0.858,6.63,2.574
		c1.768,1.742,2.652,3.926,2.652,6.552s-0.884,4.81-2.626,6.5c-1.768,1.716-3.978,2.574-6.656,2.574h-6.552V16.259z M52.693,30.898
		h2.834c1.586,0,2.912-0.52,3.978-1.586c1.066-1.04,1.586-2.366,1.586-3.952s-0.52-2.912-1.56-3.979
		c-1.066-1.04-2.392-1.56-3.978-1.56h-2.86V30.898z"/>
	<path display="inline" fill="#FFFFFF" d="M73.779,20.965c1.976,0,3.64,0.676,5.019,2.028c1.352,1.378,2.028,3.042,2.028,4.992
		c0,1.95-0.676,3.614-2.028,4.966c-1.378,1.378-3.042,2.054-5.019,2.054s-3.64-0.676-4.992-2.054
		c-1.378-1.352-2.054-3.016-2.054-4.966c0-1.95,0.676-3.614,2.054-4.992C70.139,21.642,71.803,20.965,73.779,20.965z M71.31,25.438
		c-0.676,0.702-1.014,1.534-1.014,2.522c0,0.988,0.338,1.846,1.014,2.548c0.676,0.702,1.508,1.066,2.47,1.066
		c0.962,0,1.768-0.364,2.444-1.066c0.676-0.702,1.014-1.56,1.014-2.548c0-0.962-0.338-1.82-1.014-2.522
		c-0.676-0.702-1.482-1.04-2.444-1.04C72.792,24.397,71.959,24.736,71.31,25.438z"/>
	<path display="inline" fill="#FFFFFF" d="M90.288,16h3.588v18.46h-3.588V16z"/>
	<path display="inline" fill="#FFFFFF" d="M96.814,17.221c0-1.222,0.988-2.184,2.236-2.184c1.222,0,2.236,1.014,2.236,2.184
		c0,1.222-1.014,2.21-2.236,2.21C97.802,19.431,96.814,18.443,96.814,17.221z M97.23,21.459h3.614v13H97.23V21.459z"/>
	<path display="inline" fill="#FFFFFF" d="M111.504,27.206c1.354,0.624,2.419,1.846,2.419,3.588c0,1.248-0.521,2.236-1.562,2.99
		c-1.039,0.78-2.287,1.145-3.771,1.145c-1.638,0-3.354-0.364-5.147-1.066l0.547-3.25c1.638,0.832,3.172,1.248,4.602,1.248
		c1.04,0,1.77-0.416,1.77-1.118c0-0.962-2.471-1.43-4.446-2.288c-1.353-0.598-2.418-1.768-2.418-3.406
		c0-1.196,0.494-2.184,1.481-2.938c0.987-0.754,2.235-1.118,3.719-1.118c1.794,0,3.38,0.338,4.732,1.014l-0.572,3.198
		c-1.379-0.754-2.782-1.144-4.16-1.144c-1.092,0-1.639,0.312-1.639,0.936C107.059,25.958,109.527,26.322,111.504,27.206z"/>
	<path display="inline" fill="#FFFFFF" d="M125.311,34.044c-0.857,0.494-1.871,0.728-3.041,0.728c-2.99,0-4.707-1.716-4.707-4.836
		v-5.278h-2.235V21.46h2.235v-3.744h3.588v3.744h3.9v3.198h-3.9v5.226c0,0.858,0.572,1.43,1.432,1.43
		c0.754,0,1.455-0.182,2.132-0.572L125.311,34.044z"/>
	<path display="inline" fill="#FFFFFF" d="M145.93,34.46l-1.171-3.38h-7.307l-1.17,3.38h-3.9l6.604-18.305h4.238l6.604,18.305
		H145.93z M138.622,27.751h4.967l-1.978-5.642l-0.493-2.002l-0.521,2.002L138.622,27.751z"/>
	<path display="inline" fill="#FFFFFF" d="M163.79,23.098c1.146,1.352,1.716,2.964,1.716,4.862c0,1.872-0.57,3.484-1.716,4.862
		c-1.17,1.378-2.626,2.054-4.396,2.054c-1.638,0-3.274-0.806-4.134-1.976l0.13,1.04v5.98h-3.613V21.459h3.457v1.586
		c0.858-1.222,2.472-1.976,4.16-1.976C161.164,21.069,162.62,21.746,163.79,23.098z M160.982,30.43
		c0.623-0.702,0.936-1.508,0.936-2.47s-0.313-1.768-0.936-2.47c-0.65-0.676-1.432-1.014-2.342-1.014
		c-1.377,0-2.496,0.546-3.302,1.664v3.64c0.832,1.118,1.925,1.69,3.302,1.69C159.552,31.47,160.332,31.132,160.982,30.43z"/>
	<path display="inline" fill="#FFFFFF" d="M180.04,23.098c1.146,1.352,1.716,2.964,1.716,4.862c0,1.872-0.57,3.484-1.716,4.862
		c-1.17,1.378-2.626,2.054-4.396,2.054c-1.638,0-3.274-0.806-4.134-1.976l0.13,1.04v5.98h-3.613V21.459h3.457v1.586
		c0.858-1.222,2.472-1.976,4.16-1.976C177.414,21.069,178.87,21.746,180.04,23.098z M177.232,30.43
		c0.623-0.702,0.936-1.508,0.936-2.47s-0.313-1.768-0.936-2.47c-0.65-0.676-1.432-1.014-2.342-1.014
		c-1.377,0-2.496,0.546-3.302,1.664v3.64c0.832,1.118,1.925,1.69,3.302,1.69C175.802,31.47,176.582,31.132,177.232,30.43z"/>
</g>
<g>
	<path fill="#FFFFFF" d="M64.71-28.329h-9.813V2.153h-8.614v-30.482H36.65v-6.627H64.71V-28.329z"/>
	<path fill="#FFFFFF" d="M64.532-11.89c0-4.146,1.172-7.523,3.517-10.131c2.345-2.608,5.616-3.912,9.813-3.912
		c4.214,0,7.493,1.304,9.838,3.912c2.345,2.608,3.517,5.985,3.517,10.131v0.535c0,4.163-1.172,7.544-3.517,10.144
		s-5.607,3.899-9.787,3.899c-4.23,0-7.519-1.3-9.863-3.899s-3.517-5.98-3.517-10.144V-11.89z M73.146-11.354
		c0,2.311,0.36,4.125,1.083,5.441c0.722,1.317,1.95,1.975,3.683,1.975c1.682,0,2.889-0.663,3.619-1.988
		c0.73-1.326,1.096-3.135,1.096-5.429v-0.535c0-2.243-0.366-4.04-1.096-5.391s-1.954-2.026-3.67-2.026
		c-1.699,0-2.91,0.68-3.632,2.039c-0.723,1.359-1.083,3.152-1.083,5.378V-11.354z"/>
	<path fill="#FFFFFF" d="M108.521,2.153v-37.109h13.586c4.365,0,8.02,1.423,10.959,4.269c2.939,2.846,4.408,6.495,4.408,10.947
		v6.678c0,4.469-1.469,8.122-4.408,10.959c-2.939,2.838-6.594,4.256-10.959,4.256H108.521z M117.136-28.329v23.855h4.971
		c1.953,0,3.563-0.798,4.828-2.396c1.266-1.597,1.9-3.661,1.9-6.193v-6.729c0-2.498-0.635-4.545-1.9-6.143
		c-1.266-1.597-2.875-2.396-4.828-2.396H117.136z"/>
	<path fill="#FFFFFF" d="M140.966-11.89c0-4.146,1.174-7.523,3.518-10.131c2.346-2.608,5.615-3.912,9.813-3.912
		c4.213,0,7.492,1.304,9.838,3.912c2.346,2.608,3.518,5.985,3.518,10.131v0.535c0,4.163-1.172,7.544-3.518,10.144
		s-5.607,3.899-9.787,3.899c-4.23,0-7.518-1.3-9.863-3.899c-2.344-2.6-3.518-5.98-3.518-10.144V-11.89z M149.581-11.354
		c0,2.311,0.361,4.125,1.082,5.441c0.723,1.317,1.951,1.975,3.684,1.975c1.682,0,2.889-0.663,3.619-1.988
		c0.73-1.326,1.096-3.135,1.096-5.429v-0.535c0-2.243-0.365-4.04-1.096-5.391s-1.953-2.026-3.67-2.026
		c-1.699,0-2.91,0.68-3.633,2.039c-0.721,1.359-1.082,3.152-1.082,5.378V-11.354z"/>
	<path fill="#FFFFFF" d="M44.34,36.407h-2.274V6.588h2.274V36.407z"/>
	<path fill="#FFFFFF" d="M53.229,9.799h-2.274V6.588h2.274V9.799z M53.229,36.407h-2.274V15.725h2.274V36.407z"/>
	<path fill="#FFFFFF" d="M71.943,31.112c0-0.968-0.398-1.813-1.195-2.533c-0.796-0.72-2.233-1.31-4.311-1.768
		c-2.446-0.51-4.266-1.208-5.457-2.093c-1.192-0.885-1.787-2.125-1.787-3.718c0-1.58,0.666-2.918,1.997-4.014
		c1.332-1.096,3.094-1.644,5.286-1.644c2.306,0,4.148,0.583,5.524,1.749c1.376,1.166,2.033,2.603,1.969,4.311l-0.039,0.115h-2.122
		c0-1.134-0.487-2.122-1.462-2.963c-0.975-0.841-2.265-1.262-3.871-1.262c-1.657,0-2.906,0.363-3.747,1.09
		c-0.841,0.726-1.262,1.574-1.262,2.542c0,0.943,0.36,1.724,1.08,2.342c0.72,0.618,2.157,1.163,4.311,1.634
		c2.421,0.535,4.253,1.281,5.496,2.236c1.242,0.956,1.864,2.243,1.864,3.861c0,1.721-0.698,3.119-2.093,4.196
		c-1.396,1.077-3.24,1.615-5.534,1.615c-2.511,0-4.482-0.599-5.917-1.797c-1.434-1.198-2.112-2.625-2.036-4.282l0.039-0.115h2.103
		c0.089,1.491,0.698,2.574,1.825,3.25c1.128,0.676,2.457,1.013,3.986,1.013c1.656,0,2.963-0.369,3.918-1.108
		S71.943,32.145,71.943,31.112z"/>
	<path fill="#FFFFFF" d="M83.068,10.43v5.295h4.549v1.874h-4.549v13.476c0,1.351,0.245,2.31,0.736,2.877
		c0.49,0.567,1.144,0.851,1.959,0.851c0.28,0,0.551-0.016,0.812-0.048s0.57-0.086,0.927-0.163l0.344,1.701
		c-0.306,0.153-0.685,0.277-1.137,0.373c-0.453,0.096-0.902,0.144-1.348,0.144c-1.453,0-2.584-0.458-3.393-1.376
		c-0.81-0.917-1.214-2.37-1.214-4.358V17.598H77.18v-1.874h3.575V10.43H83.068z"/>
	<path fill="#FFFFFF" d="M116.71,28.646h-12.215l-2.809,7.761h-2.371l10.227-27.832h2.16l10.15,27.832h-2.371L116.71,28.646z
		 M105.222,26.601h10.744l-5.277-14.757h-0.113L105.222,26.601z"/>
	<path fill="#FFFFFF" d="M142.267,26.64c0,3.096-0.701,5.565-2.104,7.407c-1.4,1.842-3.332,2.762-5.791,2.762
		c-1.439,0-2.705-0.274-3.795-0.822s-1.979-1.325-2.666-2.332v10.704h-2.293V15.725h1.758l0.42,3.23
		c0.689-1.147,1.58-2.036,2.676-2.667c1.098-0.631,2.383-0.946,3.861-0.946c2.486,0,4.43,0.991,5.83,2.973
		c1.402,1.981,2.104,4.623,2.104,7.923V26.64z M139.974,26.238c0-2.625-0.523-4.766-1.568-6.422
		c-1.045-1.656-2.574-2.485-4.588-2.485c-1.516,0-2.756,0.363-3.717,1.089c-0.963,0.727-1.693,1.669-2.189,2.829v10.016
		c0.535,1.122,1.293,2.004,2.275,2.647c0.98,0.644,2.203,0.965,3.67,0.965c2,0,3.52-0.751,4.559-2.255
		c1.039-1.503,1.559-3.498,1.559-5.983V26.238z"/>
	<path fill="#FFFFFF" d="M164.058,26.64c0,3.096-0.701,5.565-2.104,7.407c-1.4,1.842-3.332,2.762-5.791,2.762
		c-1.439,0-2.705-0.274-3.795-0.822s-1.979-1.325-2.666-2.332v10.704h-2.293V15.725h1.758l0.42,3.23
		c0.689-1.147,1.58-2.036,2.676-2.667c1.098-0.631,2.383-0.946,3.861-0.946c2.486,0,4.43,0.991,5.83,2.973
		c1.402,1.981,2.104,4.623,2.104,7.923V26.64z M161.765,26.238c0-2.625-0.523-4.766-1.568-6.422
		c-1.045-1.656-2.574-2.485-4.588-2.485c-1.516,0-2.756,0.363-3.717,1.089c-0.963,0.727-1.693,1.669-2.189,2.829v10.016
		c0.535,1.122,1.293,2.004,2.275,2.647c0.98,0.644,2.203,0.965,3.67,0.965c2,0,3.52-0.751,4.559-2.255
		c1.039-1.503,1.559-3.498,1.559-5.983V26.238z"/>
</g>
</svg>
