<?xml version="1.0" encoding="utf-8"?>
<!-- Generator: Adobe Illustrator 16.0.0, SVG Export Plug-In . SVG Version: 6.00 Build 0)  -->
<!DOCTYPE svg PUBLIC "-//W3C//DTD SVG 1.1//EN" "http://www.w3.org/Graphics/SVG/1.1/DTD/svg11.dtd">
<svg version="1.1" id="Layer_1" xmlns="http://www.w3.org/2000/svg" xmlns:xlink="http://www.w3.org/1999/xlink" x="0px" y="0px"
	 width="273.5px" height="76.5px" viewBox="0 0 273.5 76.5" enable-background="new 0 0 273.5 76.5" xml:space="preserve">
<path id="XMLID_586_" fill="#515151" d="M44.042,20.608V12.74c0.003-1.678-0.929-3.221-2.413-4.001
	c-1.484-0.784-3.28-0.682-4.666,0.267L6.283,30.007c-1.099,0.754-1.759,1.996-1.76,3.325c-0.004,1.331,0.646,2.579,1.739,3.338
	l30.675,21.271c1.383,0.963,3.184,1.075,4.676,0.294c1.492-0.782,2.424-2.324,2.427-4.006v-6.628
	c16.119,0.464,30.208,8.758,38.328,21.117c0.949,1.441,2.761,2.108,4.461,1.64c1.697-0.471,2.878-1.969,2.894-3.681
	c0.001-0.151,0.002-0.304,0.002-0.456C89.727,41.454,69.399,21.346,44.042,20.608z"/>
<g>
	<path fill="#515151" d="M102.084,9.344c3.314-0.698,8.549-1.222,13.87-1.222c7.59,0,12.475,1.309,16.139,4.275
		c3.053,2.268,4.885,5.757,4.885,10.381c0,5.67-3.751,10.643-9.944,12.911v0.174c5.583,1.396,12.125,6.019,12.125,14.743
		c0,5.06-2.006,8.897-4.972,11.776c-4.101,3.751-10.73,5.496-20.326,5.496c-5.233,0-9.247-0.349-11.776-0.698V9.344z M109.673,33.42
		h6.892c8.026,0,12.736-4.188,12.736-9.857c0-6.892-5.233-9.596-12.91-9.596c-3.489,0-5.496,0.262-6.718,0.523V33.42z
		 M109.673,61.597c1.483,0.262,3.664,0.35,6.368,0.35c7.852,0,15.092-2.879,15.092-11.428c0-8.026-6.892-11.341-15.179-11.341
		h-6.281V61.597z"/>
	<path fill="#515151" d="M172.483,67.354l-0.61-5.321h-0.262c-2.355,3.314-6.892,6.281-12.911,6.281
		c-8.549,0-12.911-6.02-12.911-12.126c0-10.206,9.073-15.789,25.386-15.702v-0.872c0-3.49-0.96-9.771-9.596-9.771
		c-3.926,0-8.025,1.221-10.991,3.14l-1.745-5.06c3.489-2.268,8.549-3.751,13.87-3.751c12.911,0,16.052,8.811,16.052,17.273v15.789
		c0,3.664,0.174,7.24,0.697,10.119H172.483z M171.35,45.808c-8.375-0.175-17.884,1.309-17.884,9.509
		c0,4.972,3.315,7.327,7.241,7.327c5.495,0,8.984-3.489,10.206-7.065c0.262-0.785,0.437-1.658,0.437-2.442V45.808z"/>
	<path fill="#515151" d="M221.248,65.784c-2.006,1.047-6.455,2.442-12.125,2.442c-12.736,0-21.024-8.636-21.024-21.547
		c0-12.998,8.898-22.419,22.682-22.419c4.536,0,8.549,1.134,10.643,2.181l-1.745,5.932c-1.832-1.047-4.71-2.006-8.897-2.006
		c-9.684,0-14.917,7.153-14.917,15.964c0,9.771,6.28,15.789,14.655,15.789c4.361,0,7.24-1.134,9.421-2.094L221.248,65.784z"/>
	<path fill="#515151" d="M237.823,44.499h0.175c1.047-1.483,2.53-3.314,3.751-4.798l12.388-14.568h9.247L247.07,42.492
		l18.581,24.862h-9.334l-14.568-20.238l-3.926,4.361v15.877h-7.589V5.418h7.589V44.499z"/>
</g>
</svg>
