<?xml version="1.0" encoding="utf-8"?>
<!-- Generator: Adobe Illustrator 16.0.0, SVG Export Plug-In . SVG Version: 6.00 Build 0)  -->
<!DOCTYPE svg PUBLIC "-//W3C//DTD SVG 1.1//EN" "http://www.w3.org/Graphics/SVG/1.1/DTD/svg11.dtd">
<svg version="1.1" id="Layer_1" xmlns="http://www.w3.org/2000/svg" xmlns:xlink="http://www.w3.org/1999/xlink" x="0px" y="0px"
	 width="100px" height="100px" viewBox="0 0 100 100" enable-background="new 0 0 100 100" xml:space="preserve">
<g>
	<g>
		<g>
			<polygon fill="#515251" points="69.137,34.423 61.521,34.144 59.872,79.226 67.486,79.505 			"/>
			<rect x="46.789" y="34.283" fill="#515251" width="7.619" height="45.083"/>
			<polygon fill="#515251" points="41.324,79.226 39.674,34.143 32.06,34.422 33.71,79.505 			"/>
			<path fill="#515251" d="M5.263,15.489v7.619h7.939l6.299,71.577c0.172,1.967,1.82,3.476,3.794,3.476h54.477
				c1.976,0,3.624-1.511,3.796-3.478l6.299-71.575h8.067v-7.619H5.263z M74.284,90.541h-47.5l-5.933-67.433h59.367L74.284,90.541z"
				/>
		</g>
	</g>
</g>
<g>
	<g>
		<path fill="#515251" d="M63.044,0.885H38.153c-3.501,0-6.35,2.849-6.35,6.35v12.064h7.619V8.504h22.352v10.795h7.619V7.234
			C69.394,3.733,66.545,0.885,63.044,0.885z"/>
	</g>
</g>
</svg>
