<?xml version="1.0" encoding="utf-8"?>
<!-- Generator: Adobe Illustrator 16.0.0, SVG Export Plug-In . SVG Version: 6.00 Build 0)  -->
<!DOCTYPE svg PUBLIC "-//W3C//DTD SVG 1.1//EN" "http://www.w3.org/Graphics/SVG/1.1/DTD/svg11.dtd">
<svg version="1.1" id="Layer_1" xmlns="http://www.w3.org/2000/svg" xmlns:xlink="http://www.w3.org/1999/xlink" x="0px" y="0px"
	 width="100px" height="85.167px" viewBox="0 0 100 85.167" enable-background="new 0 0 100 85.167" xml:space="preserve">
<g>
	<g>
		<path fill="#525252" d="M50,1.788c-15.945,0-28.917,12.971-28.917,28.916C21.083,46.649,34.055,59.62,50,59.62
			c15.945,0,28.916-12.971,28.916-28.917C78.916,14.759,65.945,1.788,50,1.788z M23.938,30.704c0-14.37,11.691-26.061,26.062-26.061
			l0,0v52.122l0,0C35.629,56.765,23.938,45.073,23.938,30.704z"/>
	</g>
</g>
<g>
	<path fill="#525252" d="M14.345,63.359V76.4c0,0.959,0.022,2.052,0.089,2.787h-1.761l-0.089-1.873h-0.044
		c-0.602,1.204-1.917,2.118-3.678,2.118c-2.608,0-4.615-2.207-4.615-5.484c-0.022-3.589,2.207-5.796,4.837-5.796
		c1.65,0,2.765,0.78,3.255,1.649h0.044v-6.442H14.345z M12.383,72.789c0-0.245-0.022-0.579-0.089-0.824
		c-0.29-1.249-1.36-2.274-2.831-2.274c-2.029,0-3.233,1.783-3.233,4.169c0,2.185,1.07,3.99,3.188,3.99
		c1.315,0,2.519-0.869,2.876-2.341c0.067-0.268,0.089-0.535,0.089-0.847V72.789z"/>
	<path fill="#525252" d="M23.577,79.188l-0.156-1.36h-0.067c-0.602,0.848-1.761,1.605-3.299,1.605c-2.185,0-3.299-1.538-3.299-3.099
		c0-2.608,2.318-4.035,6.487-4.013v-0.223c0-0.892-0.245-2.497-2.452-2.497c-1.003,0-2.051,0.313-2.809,0.803l-0.446-1.293
		c0.892-0.58,2.185-0.959,3.544-0.959c3.299,0,4.102,2.252,4.102,4.414v4.035c0,0.937,0.044,1.851,0.178,2.586H23.577z
		 M23.287,73.681c-2.14-0.044-4.57,0.335-4.57,2.431c0,1.271,0.847,1.872,1.85,1.872c1.405,0,2.296-0.892,2.608-1.806
		c0.067-0.2,0.111-0.424,0.111-0.624V73.681z"/>
	<path fill="#525252" d="M28.349,71.764c0-1.271-0.022-2.363-0.089-3.366h1.717l0.067,2.118h0.089
		c0.491-1.449,1.672-2.363,2.987-2.363c0.223,0,0.379,0.022,0.558,0.067v1.85c-0.201-0.044-0.401-0.066-0.669-0.066
		c-1.382,0-2.363,1.048-2.63,2.519c-0.045,0.268-0.089,0.58-0.089,0.914v5.752h-1.939V71.764z"/>
	<path fill="#525252" d="M37.669,73.347h0.044c0.268-0.379,0.646-0.847,0.959-1.227l3.166-3.723h2.363l-4.168,4.437l4.748,6.354
		h-2.385l-3.723-5.172l-1.003,1.114v4.058h-1.939V63.359h1.939V73.347z"/>
	<path fill="#525252" d="M46.321,80.079l6.22-16.162h1.516l-6.242,16.162H46.321z"/>
	<path fill="#525252" d="M55.618,63.359h1.962v15.828h-1.962V63.359z"/>
	<path fill="#525252" d="M63.065,65.366c0.021,0.668-0.469,1.203-1.249,1.203c-0.69,0-1.182-0.535-1.182-1.203
		c0-0.691,0.513-1.227,1.227-1.227C62.597,64.14,63.065,64.675,63.065,65.366z M60.88,79.188v-10.79h1.962v10.79H60.88z"/>
	<path fill="#525252" d="M75.395,68.397c-0.045,0.78-0.09,1.649-0.09,2.965v6.265c0,2.475-0.49,3.99-1.538,4.927
		c-1.048,0.98-2.563,1.293-3.923,1.293c-1.293,0-2.72-0.313-3.59-0.892l0.49-1.494c0.714,0.446,1.828,0.848,3.166,0.848
		c2.007,0,3.478-1.048,3.478-3.768v-1.204h-0.044c-0.603,1.004-1.762,1.806-3.434,1.806c-2.675,0-4.593-2.273-4.593-5.261
		c0-3.656,2.386-5.729,4.86-5.729c1.873,0,2.898,0.981,3.366,1.873h0.045l0.089-1.628H75.395z M73.365,72.655
		c0-0.334-0.021-0.624-0.111-0.892c-0.356-1.137-1.315-2.073-2.742-2.073c-1.872,0-3.21,1.583-3.21,4.08
		c0,2.117,1.07,3.879,3.188,3.879c1.203,0,2.296-0.758,2.72-2.007c0.111-0.334,0.155-0.713,0.155-1.048V72.655z"/>
	<path fill="#525252" d="M78.562,63.359h1.962v6.732h0.045c0.313-0.558,0.803-1.048,1.404-1.382c0.58-0.335,1.271-0.558,2.007-0.558
		c1.449,0,3.768,0.892,3.768,4.615v6.42h-1.962V72.99c0-1.739-0.646-3.21-2.497-3.21c-1.271,0-2.273,0.892-2.631,1.961
		c-0.111,0.268-0.134,0.558-0.134,0.937v6.51h-1.962V63.359z"/>
	<path fill="#525252" d="M93.211,65.299v3.099h2.81v1.494h-2.81v5.818c0,1.337,0.379,2.096,1.472,2.096
		c0.513,0,0.892-0.067,1.137-0.134l0.089,1.471c-0.379,0.156-0.98,0.268-1.738,0.268c-0.914,0-1.649-0.289-2.118-0.824
		c-0.558-0.58-0.758-1.539-0.758-2.81v-5.885h-1.672v-1.494h1.672v-2.586L93.211,65.299z"/>
</g>
</svg>
