<?xml version="1.0" encoding="utf-8"?>
<!-- Generator: Adobe Illustrator 16.0.0, SVG Export Plug-In . SVG Version: 6.00 Build 0)  -->
<!DOCTYPE svg PUBLIC "-//W3C//DTD SVG 1.1//EN" "http://www.w3.org/Graphics/SVG/1.1/DTD/svg11.dtd">
<svg version="1.1" id="Layer_1" xmlns="http://www.w3.org/2000/svg" xmlns:xlink="http://www.w3.org/1999/xlink" x="0px" y="0px"
	 width="45.5px" height="43.5px" viewBox="0 0 45.5 43.5" enable-background="new 0 0 45.5 43.5" xml:space="preserve">
<path id="XMLID_586_" fill="#D2315F" d="M21.002,13.67V9.703c0-0.846-0.389-1.624-1.01-2.017c-0.621-0.396-1.373-0.343-1.953,0.134
	L5.201,18.409c-0.46,0.38-0.736,1.006-0.737,1.677c-0.001,0.67,0.27,1.299,0.728,1.682l12.836,10.726
	c0.579,0.483,1.333,0.54,1.957,0.147c0.625-0.396,1.015-1.173,1.016-2.021v-3.34c6.745,0.232,12.642,4.414,16.04,10.646
	c0.396,0.728,1.156,1.063,1.868,0.826c0.711-0.235,1.202-0.992,1.211-1.856c0-0.074,0-0.151,0-0.229
	C40.119,24.18,31.611,14.042,21.002,13.67z"/>
</svg>
