<?xml version="1.0" encoding="utf-8"?>
<!-- Generator: Adobe Illustrator 16.0.0, SVG Export Plug-In . SVG Version: 6.00 Build 0)  -->
<!DOCTYPE svg PUBLIC "-//W3C//DTD SVG 1.1//EN" "http://www.w3.org/Graphics/SVG/1.1/DTD/svg11.dtd">
<svg version="1.1" id="Layer_1" xmlns="http://www.w3.org/2000/svg" xmlns:xlink="http://www.w3.org/1999/xlink" x="0px" y="0px"
	 width="52px" height="62.5px" viewBox="0 0 52 62.5" enable-background="new 0 0 52 62.5" xml:space="preserve">
<g>
	<g>
		<g>
			<path fill="#D2315F" d="M31.1,39.906l0.612-16.785l-2.86-0.105l-0.617,16.933l2.242,0.082
				C30.68,39.977,30.889,39.936,31.1,39.906z"/>
			<rect x="23.318" y="23.067" fill="#D2315F" width="2.863" height="16.934"/>
			<polygon fill="#D2315F" points="21.268,39.949 20.646,23.015 17.787,23.12 18.407,40.053 			"/>
			<path fill="#D2315F" d="M7.722,16.009v2.862h2.982l2.366,26.885c0.065,0.739,0.684,1.307,1.425,1.307h13.007
				c-0.396-0.936-0.563-1.918-0.475-2.861H15.805l-2.229-25.329h22.298l-1.616,18.369c0.918-0.36,1.928-0.44,2.895-0.229
				l1.597-18.14h3.03V16.01L7.722,16.009L7.722,16.009z"/>
		</g>
	</g>
</g>
<g>
	<g>
		<path fill="#D2315F" d="M29.424,10.523h-9.349c-1.315,0-2.385,1.07-2.385,2.385v4.531h2.862v-4.054h8.396v4.054h2.86v-4.532
			C31.811,11.593,30.74,10.523,29.424,10.523z"/>
	</g>
</g>
<path fill="#515251" d="M35,31.855c-6.314,0-11.438,5.121-11.438,11.437S28.686,54.73,35,54.73s11.438-5.123,11.438-11.438
	C46.436,36.977,41.314,31.855,35,31.855z M40.816,40.752c-0.004,0.004-0.344,0.15-0.529,0.23v0.004c0,0,0.01,0,0.027-0.004
	c0,0-0.037,0.009-0.105,0.035c-0.021,0.015-0.036,0.021-0.036,0.021c-0.01,0-0.01,0-0.015,0c-0.396,0.155-1.535,0.729-3.24,2.528
	c-2.116,2.231-2.518,3.343-2.521,3.354c-0.098,0.387-0.41,0.682-0.808,0.751c-0.06,0.009-0.118,0.015-0.175,0.015
	c-0.337,0-0.654-0.166-0.844-0.451c-0.01-0.014-0.787-1.176-1.646-2.033c-0.839-0.844-1.814-1.447-1.824-1.452
	c-0.476-0.295-0.623-0.918-0.332-1.392c0.295-0.48,0.918-0.629,1.392-0.338c0.047,0.027,1.187,0.729,2.202,1.748
	c0.334,0.326,0.646,0.689,0.924,1.026c0.451-0.663,1.134-1.535,2.171-2.627c2.494-2.638,4.073-3.099,4.431-3.172
	c0.596-0.12,1.143-0.229,1.41,0.466C41.5,39.979,41.329,40.532,40.816,40.752z"/>
</svg>
