<?xml version="1.0" encoding="utf-8"?>
<!-- Generator: Adobe Illustrator 16.0.0, SVG Export Plug-In . SVG Version: 6.00 Build 0)  -->
<!DOCTYPE svg PUBLIC "-//W3C//DTD SVG 1.1//EN" "http://www.w3.org/Graphics/SVG/1.1/DTD/svg11.dtd">
<svg version="1.1" id="Layer_1" xmlns="http://www.w3.org/2000/svg" xmlns:xlink="http://www.w3.org/1999/xlink" x="0px" y="0px"
	 width="52px" height="62.5px" viewBox="7.167 2.167 52 62.5" enable-background="new 7.167 2.167 52 62.5" xml:space="preserve">
<g>
	<g>
		<g>
			<path fill="#515251" d="M39.599,42.781l0.613-16.785l-2.86-0.105l-0.618,16.933l2.243,0.082
				C39.18,42.851,39.388,42.811,39.599,42.781z"/>
			<rect x="31.819" y="25.942" fill="#515251" width="2.862" height="16.934"/>
			<polygon fill="#515251" points="29.767,42.824 29.146,25.89 26.287,25.995 26.907,42.928 			"/>
			<path fill="#515251" d="M16.222,18.884v2.862h2.982l2.366,26.885c0.065,0.739,0.684,1.306,1.425,1.306h13.007
				c-0.397-0.935-0.562-1.918-0.474-2.861H24.305l-2.229-25.329h22.298l-1.616,18.369c0.918-0.36,1.927-0.44,2.894-0.229
				l1.597-18.14h3.03v-2.862H16.222z"/>
		</g>
	</g>
</g>
<g>
	<g>
		<path fill="#515251" d="M37.924,13.398h-9.349c-1.315,0-2.385,1.07-2.385,2.385v4.531h2.862V16.26h8.396v4.054h2.861v-4.532
			C40.31,14.468,39.24,13.398,37.924,13.398z"/>
	</g>
</g>
<path fill="#515251" d="M43.5,34.73c-6.315,0-11.437,5.121-11.437,11.437c0,6.316,5.122,11.438,11.437,11.438
	s11.437-5.122,11.437-11.438C54.936,39.851,49.815,34.73,43.5,34.73z M49.317,43.627c-0.005,0.004-0.345,0.151-0.53,0.23v0.005
	c0,0,0.01,0,0.027-0.005c0,0-0.036,0.009-0.105,0.036c-0.022,0.014-0.036,0.02-0.036,0.02c-0.01,0-0.01,0-0.015,0
	c-0.396,0.155-1.535,0.729-3.24,2.529c-2.116,2.231-2.517,3.342-2.521,3.353c-0.098,0.387-0.41,0.682-0.808,0.751
	c-0.059,0.009-0.119,0.014-0.175,0.014c-0.337,0-0.654-0.166-0.844-0.451c-0.009-0.014-0.787-1.176-1.646-2.033
	c-0.839-0.844-1.815-1.447-1.825-1.452c-0.475-0.295-0.622-0.918-0.332-1.392c0.295-0.48,0.918-0.628,1.392-0.337
	c0.047,0.027,1.186,0.729,2.203,1.747c0.333,0.327,0.646,0.69,0.923,1.027c0.452-0.663,1.134-1.535,2.171-2.627
	c2.494-2.637,4.074-3.099,4.43-3.172c0.596-0.12,1.144-0.23,1.411,0.466C50,42.853,49.829,43.407,49.317,43.627z"/>
</svg>
