<?xml version="1.0" encoding="utf-8"?>
<!-- Generator: Adobe Illustrator 16.0.0, SVG Export Plug-In . SVG Version: 6.00 Build 0)  -->
<!DOCTYPE svg PUBLIC "-//W3C//DTD SVG 1.1//EN" "http://www.w3.org/Graphics/SVG/1.1/DTD/svg11.dtd">
<svg version="1.1" id="Layer_1" xmlns="http://www.w3.org/2000/svg" xmlns:xlink="http://www.w3.org/1999/xlink" x="0px" y="0px"
	 width="100px" height="100px" viewBox="0 0 100 100" enable-background="new 0 0 100 100" xml:space="preserve">
<g>
	<g>
		<path fill="#515251" d="M50,2.5C23.769,2.5,2.5,23.769,2.5,50c0,26.23,21.269,47.5,47.5,47.5c4.381,0,7.917-3.536,7.917-7.917
			c0-2.058-0.766-3.905-2.06-5.303c-1.239-1.399-1.978-3.221-1.978-5.252c0-4.381,3.534-7.917,7.915-7.917h9.316
			c14.565,0,26.389-11.823,26.389-26.389C97.5,21.394,76.23,2.5,50,2.5z M20.972,50c-4.38,0-7.917-3.536-7.917-7.917
			c0-4.38,3.536-7.916,7.917-7.916c4.381,0,7.917,3.536,7.917,7.916C28.889,46.464,25.353,50,20.972,50z M36.805,28.889
			c-4.381,0-7.917-3.536-7.917-7.917c0-4.38,3.536-7.917,7.917-7.917c4.38,0,7.917,3.536,7.917,7.917
			C44.722,25.353,41.186,28.889,36.805,28.889z M63.194,28.889c-4.381,0-7.917-3.536-7.917-7.917c0-4.38,3.536-7.917,7.917-7.917
			s7.917,3.536,7.917,7.917C71.111,25.353,67.575,28.889,63.194,28.889z M79.027,50c-4.381,0-7.916-3.536-7.916-7.917
			c0-4.38,3.535-7.916,7.916-7.916c4.38,0,7.917,3.536,7.917,7.916C86.944,46.464,83.407,50,79.027,50z"/>
	</g>
</g>
</svg>
